<svg id="svg" version="1.1" xmlns="http://www.w3.org/2000/svg" xmlns:xlink="http://www.w3.org/1999/xlink" width="400" height="648.6666666666666" viewBox="0, 0, 400,648.6666666666666"><g id="svgg"><path id="path0" d="M26.154 26.417 C 26.067 26.646,26.035 121.476,26.081 237.151 L 26.167 447.469 109.580 333.530 C 155.457 270.864,192.931 219.496,192.855 219.379 C 192.779 219.262,182.361 212.342,169.703 204.000 C 157.046 195.658,146.688 188.758,146.686 188.667 C 146.685 188.575,171.242 176.176,201.258 161.114 L 255.833 133.729 295.103 80.114 C 316.702 50.626,334.448 26.387,334.540 26.250 C 334.631 26.112,265.317 26.000,180.509 26.000 C 57.458 26.000,26.280 26.084,26.154 26.417 M225.979 487.357 C 213.840 488.498,205.344 494.164,204.734 501.525 L 204.584 503.333 239.683 503.333 L 274.783 503.333 273.975 502.461 C 265.170 492.954,242.460 485.807,225.979 487.357 " stroke="none" fill="#eb141c" fill-rule="evenodd"></path><path id="path1" d="M11.333 294.833 L 11.333 578.333 200.167 578.333 L 389.000 578.333 389.000 294.833 L 389.000 11.333 200.167 11.333 L 11.333 11.333 11.333 294.833 M374.333 294.667 L 374.333 563.333 200.167 563.333 L 26.000 563.333 26.000 515.515 L 26.000 467.697 24.917 467.527 C 24.321 467.433,21.172 467.261,17.919 467.143 C 13.613 466.987,12.069 466.825,12.240 466.548 C 12.370 466.338,15.519 462.016,19.238 456.943 L 26.000 447.720 26.000 237.082 C 26.000 121.231,26.100 26.344,26.222 26.222 C 26.344 26.100,104.719 26.000,200.389 26.000 L 374.333 26.000 374.333 294.667 M226.253 148.590 C 182.483 170.540,146.676 188.575,146.681 188.667 C 146.685 188.758,157.039 195.658,169.690 204.000 C 182.340 212.342,196.472 221.665,201.095 224.718 C 277.007 274.860,294.444 286.334,294.556 286.222 C 294.629 286.149,297.227 247.407,300.330 200.128 C 303.433 152.849,306.071 112.929,306.192 111.417 C 306.313 109.904,306.282 108.670,306.123 108.673 C 305.964 108.677,270.022 126.639,226.253 148.590 M203.396 401.917 L 176.001 449.500 230.555 449.584 C 260.560 449.631,285.180 449.598,285.267 449.511 C 285.455 449.322,231.293 354.333,230.997 354.333 C 230.884 354.333,218.464 375.746,203.396 401.917 M22.500 626.547 C 14.800 636.745,8.380 645.294,8.233 645.544 C 8.011 645.924,9.243 646.000,15.635 646.000 L 23.304 646.000 26.235 642.186 L 29.167 638.371 41.833 638.363 L 54.500 638.355 57.189 642.094 L 59.878 645.833 67.635 645.923 C 72.788 645.982,75.355 645.899,75.280 645.673 C 75.218 645.487,69.017 636.939,61.500 626.678 L 47.833 608.023 42.167 608.015 L 36.500 608.006 22.500 626.547 M328.000 627.000 L 328.000 646.000 335.329 646.000 L 342.659 646.000 342.746 633.667 L 342.833 621.334 361.833 634.000 L 380.833 646.666 386.083 646.667 L 391.333 646.667 391.333 627.833 L 391.333 609.000 384.004 609.000 L 376.675 609.000 376.587 621.167 L 376.500 633.333 357.500 620.667 L 338.500 608.000 333.250 608.000 L 328.000 608.000 328.000 627.000 M109.333 627.500 L 109.333 646.000 126.500 646.000 L 143.667 646.000 143.667 642.667 L 143.667 639.333 133.667 639.333 L 123.667 639.333 123.667 624.167 L 123.667 609.000 116.500 609.000 L 109.333 609.000 109.333 627.500 M172.667 612.333 L 172.667 615.667 180.000 615.667 L 187.333 615.667 187.333 630.833 L 187.333 646.000 194.500 646.000 L 201.667 646.000 201.667 630.833 L 201.667 615.667 209.000 615.667 L 216.333 615.667 216.333 612.333 L 216.333 609.000 194.500 609.000 L 172.667 609.000 172.667 612.333 M251.081 627.417 L 251.167 645.833 270.083 645.919 L 289.000 646.006 289.000 642.669 L 289.000 639.333 277.333 639.333 L 265.667 639.333 265.667 634.500 L 265.667 629.667 277.000 629.667 L 288.333 629.667 288.333 626.500 L 288.333 623.333 277.000 623.333 L 265.667 623.333 265.667 619.500 L 265.667 615.667 277.333 615.667 L 289.000 615.667 289.000 612.333 L 289.000 609.000 269.997 609.000 L 250.994 609.000 251.081 627.417 M45.810 625.667 L 50.018 631.833 46.028 631.927 C 43.834 631.978,40.165 631.978,37.874 631.927 L 33.709 631.833 37.039 626.333 C 40.982 619.819,41.353 619.241,41.494 619.388 C 41.554 619.449,43.496 622.275,45.810 625.667 " stroke="none" fill="#040404" fill-rule="evenodd"></path><path id="path2" d="M2.667 294.833 L 2.667 587.000 200.167 587.000 L 397.667 587.000 397.667 294.833 L 397.667 2.667 200.167 2.667 L 2.667 2.667 2.667 294.833 M389.333 294.833 L 389.333 578.333 200.333 578.333 L 11.333 578.333 11.333 294.833 L 11.333 11.333 200.333 11.333 L 389.333 11.333 389.333 294.833 " stroke="none" fill="#fbfbfb" fill-rule="evenodd"></path><path id="path3" d="M389.166 294.833 C 389.166 450.850,389.204 514.725,389.250 436.777 C 389.296 358.830,389.296 231.180,389.250 153.111 C 389.204 75.042,389.166 138.817,389.166 294.833 M295.979 78.897 C 274.815 107.800,257.154 131.952,256.731 132.567 C 256.038 133.577,258.409 132.463,281.018 121.158 C 294.799 114.267,306.141 108.697,306.224 108.779 C 306.306 108.862,306.199 111.398,305.986 114.415 C 305.773 117.432,305.651 120.129,305.716 120.408 C 305.804 120.790,322.903 98.024,330.977 86.776 L 331.787 85.648 333.197 56.074 C 333.973 39.808,334.574 26.465,334.533 26.423 C 334.491 26.381,317.142 49.994,295.979 78.897 M147.333 281.895 C 122.308 316.113,81.618 371.723,56.911 405.472 L 11.988 466.833 13.077 466.921 C 23.471 467.758,49.505 468.570,49.857 468.068 C 50.077 467.756,88.456 415.695,135.144 352.377 C 181.832 289.060,219.987 237.215,219.933 237.166 C 219.258 236.569,193.698 219.874,193.333 219.792 C 192.999 219.718,177.802 240.234,147.333 281.895 " stroke="none" fill="#0494db" fill-rule="evenodd"></path><path id="path4" d="M334.535 28.581 C 334.423 30.003,333.807 42.867,333.165 57.167 C 332.523 71.467,331.879 83.842,331.733 84.667 C 331.508 85.938,329.533 88.788,318.799 103.333 C 311.831 112.775,305.999 120.716,305.839 120.980 C 305.680 121.244,303.116 158.491,300.142 203.752 C 297.167 249.012,294.659 286.119,294.568 286.210 C 294.476 286.302,277.699 275.345,257.285 261.863 C 222.396 238.820,220.136 237.384,219.621 237.925 C 219.246 238.318,50.311 467.374,49.509 468.577 C 49.481 468.619,45.042 468.434,39.646 468.166 C 34.249 467.897,28.971 467.675,27.917 467.672 L 26.000 467.667 26.000 515.500 L 26.000 563.333 200.167 563.333 L 374.334 563.333 374.250 294.750 L 374.167 26.167 354.452 26.081 L 334.737 25.995 334.535 28.581 M258.108 401.417 C 272.879 427.313,285.064 448.762,285.185 449.083 C 285.394 449.637,282.660 449.667,230.675 449.667 C 200.573 449.667,175.994 449.540,176.056 449.385 C 176.479 448.309,230.803 354.333,231.001 354.333 C 231.139 354.333,243.337 375.521,258.108 401.417 M240.650 487.870 C 253.251 489.537,267.978 495.985,273.975 502.461 L 274.783 503.333 239.683 503.333 L 204.584 503.333 204.734 501.525 C 205.610 490.965,220.695 485.229,240.650 487.870 " stroke="none" fill="#fbf304" fill-rule="evenodd"></path></g></svg>