<svg id="svg" version="1.1" xmlns="http://www.w3.org/2000/svg" xmlns:xlink="http://www.w3.org/1999/xlink" width="400" height="400" viewBox="0, 0, 400,400"><g id="svgg"><path id="path0" d="M121.300 62.411 L 120.400 62.774 120.400 156.744 C 120.400 239.256,120.472 250.742,120.991 250.941 C 121.614 251.180,124.610 248.004,126.162 245.459 C 126.623 244.703,128.980 241.432,131.400 238.190 C 137.138 230.503,141.275 224.868,144.000 221.030 C 145.210 219.326,147.010 216.873,148.000 215.579 C 148.990 214.286,151.015 211.556,152.501 209.514 C 153.986 207.471,156.596 203.882,158.301 201.538 C 160.005 199.194,162.300 196.063,163.400 194.581 C 164.500 193.098,166.210 190.755,167.200 189.373 C 171.729 183.052,173.043 181.275,174.470 179.544 C 175.312 178.524,176.000 177.558,176.000 177.397 C 176.000 177.237,176.495 176.511,177.100 175.785 C 177.705 175.058,179.100 173.185,180.200 171.621 C 182.039 169.006,185.367 164.431,187.198 162.000 C 190.363 157.797,192.000 155.533,192.000 155.355 C 192.000 155.240,192.810 154.152,193.800 152.936 C 196.288 149.882,196.335 149.950,188.120 144.566 C 185.524 142.865,182.339 140.772,181.042 139.917 C 179.745 139.061,178.170 138.095,177.542 137.770 C 174.521 136.208,174.391 136.291,200.100 123.391 C 226.262 110.264,225.143 110.911,227.013 107.806 C 227.747 106.587,228.730 105.096,229.196 104.495 C 229.662 103.893,230.528 102.728,231.121 101.906 C 231.715 101.085,232.976 99.375,233.925 98.106 C 236.459 94.717,240.067 89.803,241.118 88.307 C 241.623 87.588,243.243 85.371,244.718 83.380 C 246.193 81.390,248.018 78.870,248.773 77.780 C 249.529 76.691,250.609 75.237,251.173 74.548 C 251.738 73.860,253.010 72.160,254.000 70.770 C 257.152 66.345,259.874 63.139,261.048 62.469 C 262.007 61.921,122.655 61.864,121.300 62.411 M265.911 62.293 C 266.851 62.378,268.291 62.377,269.111 62.291 C 269.930 62.205,269.160 62.136,267.400 62.137 C 265.640 62.139,264.970 62.209,265.911 62.293 M272.691 62.289 C 273.401 62.377,274.661 62.379,275.491 62.292 C 276.321 62.205,275.740 62.133,274.200 62.131 C 272.660 62.129,271.981 62.200,272.691 62.289 M246.909 107.200 C 246.909 108.190,246.987 108.595,247.082 108.100 C 247.178 107.605,247.178 106.795,247.082 106.300 C 246.987 105.805,246.909 106.210,246.909 107.200 M246.514 112.200 C 246.517 113.300,246.595 113.703,246.687 113.095 C 246.779 112.486,246.777 111.586,246.682 111.095 C 246.587 110.603,246.511 111.100,246.514 112.200 M246.124 117.800 C 246.126 119.120,246.201 119.612,246.290 118.893 C 246.379 118.174,246.377 117.094,246.286 116.493 C 246.195 115.892,246.122 116.480,246.124 117.800 M245.709 125.200 C 245.709 126.190,245.787 126.595,245.882 126.100 C 245.978 125.605,245.978 124.795,245.882 124.300 C 245.787 123.805,245.709 124.210,245.709 125.200 M245.320 130.000 C 245.320 131.210,245.395 131.705,245.487 131.100 C 245.578 130.495,245.578 129.505,245.487 128.900 C 245.395 128.295,245.320 128.790,245.320 130.000 M244.931 136.200 C 244.933 137.740,245.005 138.321,245.092 137.491 C 245.179 136.661,245.177 135.401,245.089 134.691 C 245.000 133.981,244.929 134.660,244.931 136.200 M244.501 143.000 C 244.505 143.880,244.587 144.193,244.683 143.695 C 244.779 143.198,244.775 142.478,244.675 142.095 C 244.575 141.713,244.496 142.120,244.501 143.000 M244.120 148.000 C 244.120 149.210,244.195 149.705,244.287 149.100 C 244.378 148.495,244.378 147.505,244.287 146.900 C 244.195 146.295,244.120 146.790,244.120 148.000 M243.714 156.200 C 243.717 157.300,243.795 157.703,243.887 157.095 C 243.979 156.486,243.977 155.586,243.882 155.095 C 243.787 154.603,243.711 155.100,243.714 156.200 M243.324 161.000 C 243.326 162.320,243.401 162.812,243.490 162.093 C 243.579 161.374,243.577 160.294,243.486 159.693 C 243.395 159.092,243.322 159.680,243.324 161.000 M242.914 166.600 C 242.917 167.700,242.995 168.103,243.087 167.495 C 243.179 166.886,243.177 165.986,243.082 165.495 C 242.987 165.003,242.911 165.500,242.914 166.600 M242.509 174.000 C 242.509 174.990,242.587 175.395,242.682 174.900 C 242.778 174.405,242.778 173.595,242.682 173.100 C 242.587 172.605,242.509 173.010,242.509 174.000 M242.064 177.633 C 241.985 179.406,241.728 179.684,240.647 179.164 C 239.821 178.766,239.819 178.771,240.582 179.382 C 241.686 180.266,242.516 179.381,242.294 177.556 L 242.128 176.200 242.064 177.633 M212.892 211.468 C 212.612 211.580,212.108 212.241,211.772 212.936 C 211.234 214.050,211.233 214.105,211.767 213.400 C 213.156 211.566,213.224 211.524,213.935 212.080 C 214.530 212.545,214.542 212.526,214.051 211.900 C 213.749 211.515,213.479 211.214,213.451 211.232 C 213.423 211.249,213.171 211.355,212.892 211.468 M206.823 221.450 C 206.353 222.248,206.033 222.966,206.113 223.046 C 206.192 223.126,206.661 222.473,207.154 221.596 C 208.275 219.602,207.988 219.477,206.823 221.450 M203.952 226.500 C 203.690 226.995,203.215 227.850,202.896 228.400 C 202.339 229.359,202.343 229.367,202.988 228.600 C 203.786 227.652,204.905 225.600,204.624 225.600 C 204.516 225.600,204.214 226.005,203.952 226.500 M229.800 240.000 C 230.141 240.660,230.511 241.200,230.621 241.200 C 230.731 241.200,230.541 240.660,230.200 240.000 C 229.859 239.340,229.489 238.800,229.379 238.800 C 229.269 238.800,229.459 239.340,229.800 240.000 M189.640 251.423 C 189.178 252.205,188.818 253.150,188.840 253.523 C 188.871 254.059,188.934 254.034,189.141 253.400 C 189.285 252.960,189.722 252.015,190.112 251.300 C 191.070 249.543,190.691 249.641,189.640 251.423 M237.094 253.299 C 236.915 253.765,236.225 254.000,234.721 254.104 L 232.600 254.252 234.600 254.320 C 236.776 254.394,237.797 253.991,237.522 253.166 C 237.394 252.782,237.279 252.817,237.094 253.299 M200.100 254.300 C 205.985 254.362,215.615 254.362,221.500 254.300 C 227.385 254.237,222.570 254.186,210.800 254.186 C 199.030 254.186,194.215 254.237,200.100 254.300 M120.586 284.000 C 120.586 295.550,120.637 300.275,120.700 294.500 C 120.762 288.725,120.762 279.275,120.700 273.500 C 120.637 267.725,120.586 272.450,120.586 284.000 M207.766 271.795 C 203.972 272.993,201.453 275.211,201.679 277.156 L 201.800 278.200 216.767 278.200 C 233.283 278.200,233.324 278.193,229.850 275.885 C 223.884 271.924,213.467 269.995,207.766 271.795 M160.300 305.900 C 181.695 305.957,216.705 305.957,238.100 305.900 C 259.495 305.843,241.990 305.796,199.200 305.796 C 156.410 305.796,138.905 305.843,160.300 305.900 " stroke="none" fill="#d1081a" fill-rule="evenodd"></path><path id="path1" d="M260.254 63.003 C 259.841 63.416,259.722 64.044,259.878 65.001 C 260.282 67.493,259.168 87.231,258.512 89.200 C 257.984 90.785,249.427 102.765,248.346 103.433 C 247.272 104.097,246.996 107.126,244.604 144.600 C 244.073 152.921,243.442 162.486,242.552 175.685 C 242.182 181.178,244.731 182.268,220.651 166.323 L 208.701 158.411 207.739 159.306 C 207.209 159.797,205.936 161.370,204.910 162.800 C 203.884 164.230,200.772 168.460,197.994 172.200 C 195.217 175.940,192.057 180.220,190.972 181.711 C 188.655 184.895,188.321 185.349,184.431 190.600 C 182.801 192.800,180.677 195.680,179.711 197.000 C 178.744 198.320,176.623 201.200,174.997 203.400 C 173.370 205.600,171.626 207.988,171.120 208.707 C 170.614 209.426,169.067 211.496,167.683 213.307 C 166.298 215.118,164.729 217.230,164.195 218.000 C 163.262 219.346,162.532 220.343,156.090 229.061 C 154.489 231.228,151.195 235.700,148.769 239.000 C 146.343 242.300,144.018 245.450,143.602 246.000 C 143.185 246.550,142.390 247.630,141.834 248.400 C 139.323 251.878,138.747 252.679,137.901 253.867 C 131.607 262.715,131.769 262.600,125.600 262.600 L 121.000 262.600 121.000 284.000 L 121.000 305.400 198.958 305.501 C 256.248 305.575,277.059 305.483,277.458 305.152 C 278.213 304.525,278.275 63.635,277.520 62.880 C 276.740 62.100,261.045 62.212,260.254 63.003 M215.821 214.885 C 216.892 216.708,218.111 218.830,218.530 219.600 C 220.618 223.439,225.097 231.283,226.461 233.490 C 227.308 234.860,228.000 236.072,228.000 236.184 C 228.000 236.296,228.512 237.246,229.138 238.294 C 235.997 249.785,237.977 253.770,237.011 254.140 C 236.200 254.452,190.260 254.475,189.451 254.164 C 188.472 253.789,188.644 253.068,190.400 250.200 C 191.280 248.762,192.000 247.514,192.000 247.426 C 192.000 247.337,193.080 245.436,194.400 243.200 C 195.720 240.964,196.800 239.056,196.800 238.959 C 196.800 238.863,197.221 238.113,197.736 237.292 C 198.251 236.471,199.126 234.990,199.680 234.000 C 200.233 233.010,201.730 230.400,203.005 228.200 C 204.280 226.000,205.771 223.390,206.319 222.400 C 206.866 221.410,207.619 220.150,207.992 219.600 C 208.365 219.050,209.444 217.160,210.390 215.400 C 213.139 210.285,213.121 210.287,215.821 214.885 M219.693 271.792 C 224.572 272.726,232.296 276.511,231.879 277.764 C 231.777 278.068,227.202 278.200,216.767 278.200 L 201.800 278.200 201.679 277.156 C 201.170 272.768,210.411 270.016,219.693 271.792 " stroke="none" fill="#f8ea07" fill-rule="evenodd"></path><path id="path2" d="M114.668 56.266 C 113.978 56.956,114.375 260.063,115.067 259.929 C 116.479 259.655,121.832 251.565,121.004 250.956 C 120.468 250.562,120.400 239.888,120.400 156.646 L 120.400 62.780 121.452 62.380 C 122.862 61.844,276.280 61.908,277.284 62.445 C 278.452 63.070,278.395 304.960,277.226 305.586 C 275.779 306.360,121.799 306.142,121.022 305.365 C 120.457 304.800,120.389 302.395,120.407 283.688 C 120.423 266.948,120.323 262.590,119.914 262.368 C 119.631 262.215,118.320 262.114,117.000 262.145 L 114.600 262.200 114.497 287.101 L 114.394 312.002 199.297 311.901 L 284.200 311.800 284.200 184.000 L 284.200 56.200 199.568 56.099 C 153.020 56.044,114.815 56.119,114.668 56.266 M236.400 105.027 C 231.450 107.516,227.147 109.563,226.838 109.576 C 226.529 109.589,225.710 110.031,225.020 110.558 C 224.329 111.085,213.107 116.863,200.082 123.399 C 174.393 136.290,174.522 136.208,177.542 137.770 C 178.170 138.095,179.745 139.061,181.042 139.917 C 182.339 140.772,185.543 142.877,188.163 144.595 C 190.783 146.312,193.573 148.296,194.363 149.005 C 195.153 149.714,196.247 150.433,196.794 150.604 C 197.341 150.774,198.691 151.579,199.794 152.392 C 200.897 153.205,202.250 154.103,202.800 154.388 C 203.350 154.673,204.520 155.485,205.400 156.194 C 206.280 156.902,207.630 157.802,208.400 158.194 C 209.170 158.585,215.380 162.607,222.200 167.131 C 238.003 177.614,241.291 179.671,241.650 179.300 C 242.091 178.845,242.834 169.661,244.019 150.000 C 244.976 134.129,245.202 130.544,245.598 125.000 C 246.328 114.762,247.164 105.059,247.433 103.705 C 248.291 99.375,247.441 99.477,236.400 105.027 M212.979 211.906 C 212.556 212.201,211.607 213.689,210.030 216.528 C 209.564 217.369,207.807 220.429,206.126 223.328 C 197.442 238.310,195.622 241.473,192.544 246.936 C 190.705 250.202,189.200 253.127,189.200 253.436 C 189.200 254.264,236.716 254.284,237.034 253.457 C 237.148 253.158,235.194 249.333,232.690 244.957 C 226.702 234.492,224.438 230.502,218.421 219.813 C 215.531 214.680,213.679 211.594,213.495 211.606 C 213.443 211.609,213.210 211.744,212.979 211.906 M127.107 326.254 C 126.726 326.365,125.111 328.198,123.518 330.328 C 121.926 332.458,119.403 335.772,117.911 337.694 C 114.420 342.194,114.385 342.800,117.615 342.800 C 119.951 342.800,120.087 342.741,121.779 341.000 L 123.529 339.200 128.828 339.200 L 134.127 339.200 135.780 341.000 C 137.493 342.866,142.828 343.856,142.787 342.300 C 142.775 341.869,135.425 331.538,132.356 327.640 C 131.305 326.304,129.012 325.699,127.107 326.254 M257.900 326.276 C 257.036 326.502,257.126 325.690,257.020 334.200 C 256.915 342.686,256.949 342.800,259.581 342.800 C 262.876 342.800,262.800 342.922,262.800 337.606 C 262.800 331.564,262.983 331.369,266.447 333.734 C 285.061 346.445,284.800 346.430,284.800 334.829 C 284.800 326.292,285.016 326.800,281.381 326.800 C 278.606 326.800,278.358 327.248,278.632 331.772 C 279.020 338.173,279.088 338.173,269.559 331.783 C 261.465 326.355,260.086 325.704,257.900 326.276 M159.467 327.067 C 158.901 327.632,159.168 341.875,159.753 342.361 C 160.133 342.676,162.416 342.785,167.053 342.710 L 173.800 342.600 173.925 341.514 C 174.078 340.192,173.602 340.042,168.800 339.900 L 165.400 339.800 165.303 334.200 C 165.168 326.433,165.319 326.800,162.259 326.800 C 160.870 326.800,159.613 326.920,159.467 327.067 M187.422 327.164 C 186.636 328.437,187.986 329.126,191.600 329.296 L 193.800 329.400 193.897 335.200 C 194.030 343.125,193.909 342.800,196.728 342.800 C 199.976 342.800,200.000 342.751,200.000 336.153 C 200.000 328.932,199.884 329.200,203.014 329.200 C 205.674 329.200,206.978 328.530,206.540 327.388 C 206.279 326.707,187.839 326.490,187.422 327.164 M222.643 327.433 C 222.225 328.523,222.373 341.203,222.814 342.026 C 223.470 343.252,238.597 343.220,238.918 341.993 C 239.338 340.384,238.277 340.000,233.414 340.000 C 228.506 340.000,228.400 339.950,228.400 337.647 C 228.400 335.852,229.015 335.600,233.404 335.600 C 237.717 335.600,239.064 335.155,238.579 333.889 C 238.351 333.296,237.714 333.200,233.986 333.200 C 229.300 333.200,228.400 332.849,228.400 331.020 C 228.400 329.510,229.215 329.233,234.024 329.114 L 238.600 329.000 238.727 327.900 L 238.853 326.800 230.869 326.800 C 223.958 326.800,222.853 326.885,222.643 327.433 M130.613 333.372 C 131.036 334.158,131.521 334.800,131.691 334.800 C 131.861 334.800,132.000 335.250,132.000 335.800 C 132.000 336.783,131.947 336.800,128.800 336.800 C 125.162 336.800,124.961 336.563,126.466 334.047 C 128.406 330.805,129.164 330.682,130.613 333.372 " stroke="none" fill="#0b0b0d" fill-rule="evenodd"></path><path id="path3" d="M0.000 200.000 L 0.000 400.000 200.000 400.000 L 400.000 400.000 400.000 200.000 L 400.000 0.000 200.000 0.000 L 0.000 0.000 0.000 200.000 M284.302 55.931 C 285.197 56.499,285.020 311.639,284.125 312.300 C 283.235 312.957,115.999 313.042,114.774 312.386 C 113.796 311.863,113.523 56.259,114.500 55.865 C 115.343 55.525,283.766 55.591,284.302 55.931 M269.744 331.331 C 273.894 334.119,277.449 336.400,277.644 336.400 C 277.840 336.400,278.000 334.343,278.000 331.829 C 278.000 326.288,278.178 326.000,281.600 326.000 C 285.234 326.000,285.200 325.915,285.200 334.949 C 285.200 340.397,285.060 342.780,284.720 343.120 C 284.047 343.793,280.013 343.733,279.231 343.039 C 278.884 342.731,275.720 340.549,272.200 338.189 C 268.680 335.830,265.492 333.631,265.115 333.302 C 263.601 331.979,263.232 332.861,263.112 338.083 L 263.000 343.000 260.123 343.117 C 256.280 343.273,256.357 343.469,256.491 333.910 L 256.600 326.200 258.000 325.989 C 260.744 325.576,262.089 326.188,269.744 331.331 M134.794 330.116 C 145.073 344.138,144.587 342.958,140.137 343.116 L 136.874 343.231 135.737 341.640 C 134.338 339.682,134.089 339.612,128.456 339.605 L 123.912 339.600 122.121 341.417 L 120.330 343.234 117.469 343.117 C 115.221 343.025,114.582 342.862,114.486 342.358 C 114.394 341.874,122.906 329.947,125.792 326.515 C 126.040 326.220,127.297 326.031,129.000 326.031 L 131.800 326.032 134.794 330.116 M165.120 326.480 C 165.452 326.812,165.600 328.856,165.600 333.090 C 165.600 340.238,165.492 340.077,170.055 339.711 C 173.410 339.442,174.495 339.954,174.323 341.727 C 174.165 343.358,173.486 343.467,165.200 343.200 L 159.000 343.000 158.891 335.001 C 158.794 327.833,158.854 326.950,159.468 326.501 C 160.341 325.862,164.487 325.847,165.120 326.480 M206.571 326.629 C 208.186 328.243,206.950 329.600,203.866 329.600 C 200.398 329.600,200.400 329.596,200.400 336.247 C 200.400 343.556,200.574 343.200,197.000 343.200 C 193.426 343.200,193.600 343.556,193.600 336.247 C 193.600 329.614,193.593 329.600,190.200 329.600 C 187.691 329.600,186.800 329.167,186.800 327.949 C 186.800 326.140,187.533 326.000,197.000 326.000 C 204.597 326.000,206.037 326.095,206.571 326.629 M239.227 326.851 C 240.380 329.005,239.304 329.600,234.258 329.600 C 229.378 329.600,228.473 329.938,228.989 331.567 C 229.277 332.472,230.972 332.928,233.441 332.764 C 238.431 332.432,239.921 333.105,238.808 335.185 C 238.410 335.929,237.989 336.000,234.000 336.000 C 229.451 336.000,228.785 336.266,228.806 338.074 C 228.823 339.497,229.445 339.693,233.749 339.630 C 239.221 339.550,240.691 340.355,239.084 342.553 C 238.466 343.398,223.524 343.567,222.528 342.740 C 221.684 342.040,221.775 327.482,222.629 326.629 C 223.747 325.510,238.616 325.709,239.227 326.851 M127.070 333.790 C 125.646 336.044,125.883 336.400,128.800 336.400 C 131.751 336.400,131.966 336.040,130.356 333.799 C 128.753 331.566,128.476 331.565,127.070 333.790 " stroke="none" fill="#fbfbfb" fill-rule="evenodd"></path><path id="path4" d="M114.500 55.865 C 113.523 56.259,113.796 311.863,114.774 312.386 C 115.999 313.042,283.235 312.957,284.125 312.300 C 285.020 311.639,285.197 56.499,284.302 55.931 C 283.766 55.591,115.343 55.525,114.500 55.865 M284.200 184.000 L 284.200 311.800 199.297 311.901 L 114.394 312.002 114.497 287.101 L 114.600 262.200 117.400 262.257 C 118.940 262.289,122.450 262.396,125.200 262.495 C 131.660 262.729,131.537 262.813,137.901 253.867 C 138.747 252.679,139.323 251.878,141.834 248.400 C 142.390 247.630,143.185 246.550,143.602 246.000 C 144.018 245.450,146.343 242.300,148.769 239.000 C 151.195 235.700,154.489 231.228,156.090 229.061 C 162.532 220.343,163.262 219.346,164.195 218.000 C 164.729 217.230,166.298 215.118,167.683 213.307 C 169.067 211.496,170.614 209.426,171.120 208.707 C 171.626 207.988,173.370 205.600,174.997 203.400 C 176.623 201.200,178.744 198.320,179.711 197.000 C 180.677 195.680,182.801 192.800,184.431 190.600 C 188.433 185.197,188.575 185.004,191.975 180.309 C 193.611 178.049,196.048 174.760,197.390 173.000 C 198.732 171.240,201.249 167.820,202.984 165.400 C 204.718 162.980,206.691 160.392,207.368 159.649 C 208.150 158.792,208.424 158.233,208.118 158.122 C 207.853 158.025,206.773 157.264,205.718 156.431 C 204.663 155.597,203.350 154.681,202.800 154.393 C 202.250 154.106,200.874 153.188,199.741 152.353 C 196.488 149.955,196.117 149.982,193.900 152.777 C 192.855 154.094,192.000 155.260,192.000 155.368 C 192.000 155.535,190.316 157.861,187.198 162.000 C 185.367 164.431,182.039 169.006,180.200 171.621 C 179.100 173.185,177.705 175.058,177.100 175.785 C 176.495 176.511,176.000 177.237,176.000 177.397 C 176.000 177.558,175.312 178.524,174.470 179.544 C 173.043 181.275,171.729 183.052,167.200 189.373 C 166.210 190.755,164.500 193.098,163.400 194.581 C 162.300 196.063,160.005 199.194,158.301 201.538 C 156.596 203.882,153.986 207.471,152.501 209.514 C 151.015 211.556,148.990 214.286,148.000 215.579 C 147.010 216.873,145.210 219.326,144.000 221.030 C 141.299 224.834,137.192 230.430,131.400 238.193 C 128.980 241.437,126.653 244.656,126.230 245.346 C 125.806 246.036,124.546 247.709,123.430 249.065 C 122.313 250.421,120.720 252.581,119.888 253.865 C 117.314 257.841,115.761 259.795,115.067 259.929 C 114.375 260.063,113.978 56.956,114.668 56.266 C 114.815 56.119,153.020 56.044,199.568 56.099 L 284.200 56.200 284.200 184.000 M258.850 64.467 C 257.208 66.438,255.557 68.585,254.000 70.770 C 253.010 72.160,251.738 73.860,251.173 74.548 C 250.609 75.237,249.529 76.691,248.773 77.780 C 248.018 78.870,246.193 81.390,244.718 83.380 C 243.243 85.371,241.623 87.588,241.118 88.307 C 240.067 89.803,236.459 94.717,233.925 98.106 C 232.976 99.375,231.750 101.033,231.200 101.792 C 230.650 102.551,229.632 103.944,228.938 104.886 C 224.589 110.795,224.755 110.797,236.523 105.000 C 247.626 99.530,247.600 99.535,247.600 102.882 C 247.600 104.587,247.978 104.204,253.366 97.043 C 259.186 89.306,259.009 89.899,259.632 76.091 C 260.142 64.781,260.025 63.055,258.850 64.467 M125.792 326.515 C 122.906 329.947,114.394 341.874,114.486 342.358 C 114.582 342.862,115.221 343.025,117.469 343.117 L 120.330 343.234 122.121 341.417 L 123.912 339.600 128.456 339.605 C 134.089 339.612,134.338 339.682,135.737 341.640 L 136.874 343.231 140.137 343.116 C 144.159 342.973,144.160 342.957,140.474 337.892 C 132.388 326.781,131.789 326.033,131.000 326.044 C 130.290 326.055,130.279 326.088,130.904 326.335 C 131.623 326.619,133.490 329.011,139.438 337.267 C 143.508 342.916,143.494 342.800,140.116 342.800 C 137.447 342.800,137.423 342.790,135.780 341.000 L 134.127 339.200 128.828 339.200 L 123.529 339.200 121.779 341.000 C 120.087 342.741,119.951 342.800,117.615 342.800 C 114.385 342.800,114.420 342.194,117.911 337.694 C 119.403 335.772,121.926 332.458,123.518 330.328 C 125.111 328.198,126.726 326.374,127.107 326.274 C 127.677 326.125,127.658 326.087,127.000 326.062 C 126.560 326.044,126.017 326.249,125.792 326.515 M159.468 326.501 C 158.854 326.950,158.794 327.833,158.891 335.001 L 159.000 343.000 165.200 343.200 C 173.366 343.463,174.161 343.343,174.334 341.820 C 174.521 340.179,173.549 339.584,170.824 339.670 C 168.732 339.736,168.707 339.748,170.400 339.875 C 173.658 340.121,174.064 340.310,173.925 341.514 L 173.800 342.600 166.957 342.709 C 158.430 342.845,159.153 343.634,159.291 334.348 L 159.400 327.000 162.088 326.882 C 165.343 326.739,165.166 326.337,165.303 334.200 L 165.400 339.800 166.400 339.896 C 167.385 339.991,167.387 339.986,166.500 339.609 C 165.622 339.235,165.600 339.073,165.600 333.093 C 165.600 328.856,165.452 326.812,165.120 326.480 C 164.487 325.847,160.341 325.862,159.468 326.501 M187.429 326.629 C 185.771 328.286,186.997 329.600,190.200 329.600 C 193.593 329.600,193.600 329.614,193.600 336.247 C 193.600 343.556,193.426 343.200,197.000 343.200 C 200.574 343.200,200.400 343.556,200.400 336.247 C 200.400 329.596,200.398 329.600,203.866 329.600 C 206.350 329.600,207.200 329.104,207.200 327.655 C 207.200 326.172,206.139 326.000,197.000 326.000 C 189.403 326.000,187.963 326.095,187.429 326.629 M222.629 326.629 C 221.775 327.482,221.684 342.040,222.528 342.740 C 223.524 343.567,238.466 343.398,239.084 342.553 C 240.641 340.424,239.243 339.577,234.326 339.671 L 230.600 339.743 234.516 339.971 C 238.590 340.209,239.297 340.543,238.904 342.044 C 238.595 343.226,223.447 343.209,222.814 342.026 C 222.373 341.203,222.225 328.523,222.643 327.433 C 222.853 326.885,223.958 326.800,230.869 326.800 L 238.853 326.800 238.727 327.900 L 238.600 329.000 234.024 329.114 C 229.215 329.233,228.400 329.510,228.400 331.020 C 228.400 332.849,229.300 333.200,233.986 333.200 C 237.714 333.200,238.351 333.296,238.579 333.889 C 239.064 335.155,237.717 335.600,233.404 335.600 C 229.015 335.600,228.400 335.852,228.400 337.647 C 228.400 339.314,228.802 340.005,229.743 339.954 C 230.419 339.917,230.452 339.868,229.900 339.724 C 228.998 339.489,228.605 337.912,229.180 336.837 C 229.593 336.066,229.973 336.000,234.000 336.000 C 237.989 336.000,238.410 335.929,238.808 335.185 C 239.921 333.105,238.431 332.432,233.441 332.764 C 230.972 332.928,229.277 332.472,228.989 331.567 C 228.473 329.938,229.378 329.600,234.258 329.600 C 239.304 329.600,240.380 329.005,239.227 326.851 C 238.616 325.709,223.747 325.510,222.629 326.629 M256.667 326.267 C 256.141 326.792,256.365 341.799,256.910 342.544 C 257.326 343.114,257.927 343.219,260.210 343.120 L 263.000 343.000 263.112 338.083 C 263.232 332.861,263.601 331.979,265.115 333.302 C 265.492 333.631,268.680 335.830,272.200 338.189 C 275.720 340.549,278.884 342.731,279.231 343.039 C 280.013 343.733,284.047 343.793,284.720 343.120 C 285.060 342.780,285.200 340.397,285.200 334.949 C 285.200 325.915,285.234 326.000,281.600 326.000 C 278.178 326.000,278.000 326.288,278.000 331.829 C 278.000 334.343,277.841 336.400,277.647 336.400 C 277.453 336.400,273.808 334.061,269.547 331.202 C 264.494 327.812,261.452 326.016,260.800 326.037 C 259.817 326.068,259.819 326.074,260.920 326.405 C 261.537 326.590,265.416 329.005,269.541 331.771 C 279.090 338.174,279.020 338.174,278.632 331.772 C 278.358 327.248,278.606 326.800,281.381 326.800 C 285.016 326.800,284.800 326.292,284.800 334.829 C 284.800 346.430,285.061 346.445,266.447 333.734 C 262.983 331.369,262.800 331.564,262.800 337.606 C 262.800 342.922,262.876 342.800,259.581 342.800 C 256.949 342.800,256.915 342.686,257.020 334.200 C 257.126 325.690,257.036 326.502,257.900 326.276 C 258.467 326.127,258.442 326.084,257.767 326.046 C 257.308 326.021,256.813 326.120,256.667 326.267 M206.540 327.388 C 206.978 328.530,205.674 329.200,203.014 329.200 C 199.884 329.200,200.000 328.932,200.000 336.153 C 200.000 342.751,199.976 342.800,196.728 342.800 C 193.909 342.800,194.030 343.125,193.897 335.200 L 193.800 329.400 191.600 329.296 C 187.986 329.126,186.636 328.437,187.422 327.164 C 187.839 326.490,206.279 326.707,206.540 327.388 M127.916 331.913 C 124.713 335.679,124.916 336.800,128.800 336.800 C 131.947 336.800,132.000 336.783,132.000 335.800 C 132.000 335.250,131.861 334.800,131.691 334.800 C 131.521 334.800,131.036 334.158,130.613 333.372 C 129.609 331.507,128.686 331.008,127.916 331.913 M130.356 333.799 C 131.966 336.040,131.751 336.400,128.800 336.400 C 125.883 336.400,125.646 336.044,127.070 333.790 C 128.476 331.565,128.753 331.566,130.356 333.799 " stroke="none" fill="#0d8cc9" fill-rule="evenodd"></path></g></svg>