<?xml version="1.0" standalone="no"?>
<!DOCTYPE svg PUBLIC "-//W3C//DTD SVG 20010904//EN"
 "http://www.w3.org/TR/2001/REC-SVG-20010904/DTD/svg10.dtd">
<svg version="1.0" xmlns="http://www.w3.org/2000/svg"
 width="400.000000pt" height="400.000000pt" viewBox="0 0 400.000000 400.000000"
 preserveAspectRatio="xMidYMid meet">

<g transform="translate(0.000000,400.000000) scale(0.100000,-0.100000)"
fill="#000000" stroke="none">
<path d="M1140 2160 l0 -1280 855 0 855 0 0 1280 0 1280 -855 0 -855 0 0
-1280z m1635 0 l0 -1215 -782 -3 -783 -2 0 222 0 223 49 -3 49 -4 58 79 c31
43 87 119 124 168 37 50 124 169 195 265 71 96 182 247 247 335 65 88 124 168
131 179 12 17 24 11 182 -93 92 -61 170 -109 173 -106 3 2 16 172 29 377 l24
373 29 40 c88 120 82 105 88 232 2 65 9 126 14 136 8 15 21 17 91 15 l82 -3 0
-1215z"/>
<path d="M2123 1878 c-25 -32 -235 -409 -231 -414 3 -2 113 -3 245 -2 l240 3
-119 209 c-65 116 -120 211 -122 213 -2 2 -8 -2 -13 -9z"/>
<path d="M2063 1275 c-17 -7 -36 -23 -43 -34 -11 -21 -10 -21 147 -21 158 0
158 0 133 20 -30 23 -124 50 -171 50 -19 -1 -48 -7 -66 -15z"/>
<path d="M1208 665 c-32 -41 -58 -79 -58 -85 0 -18 55 -11 73 10 12 15 29 20
65 20 36 0 54 -5 67 -20 16 -18 75 -29 75 -14 0 4 -26 42 -57 85 -77 104 -88
104 -165 4z m98 -2 c20 -27 17 -33 -16 -33 -31 0 -39 17 -18 38 16 16 18 15
34 -5z"/>
<path d="M1597 733 c-4 -3 -7 -42 -7 -85 l0 -78 75 0 c59 0 75 3 75 14 0 10
-14 16 -42 18 l-43 3 -3 68 c-3 62 -5 67 -26 67 -12 0 -26 -3 -29 -7z"/>
<path d="M1877 734 c-14 -15 -6 -23 26 -26 l32 -3 3 -67 c3 -68 3 -68 32 -68
29 0 29 0 32 68 l3 67 33 3 c20 2 32 8 29 15 -4 13 -178 23 -190 11z"/>
<path d="M2224 727 c-3 -8 -4 -45 -2 -83 l3 -69 83 -3 c68 -2 82 0 82 13 0 11
-12 15 -50 15 -43 0 -50 3 -50 19 0 17 8 20 47 23 66 4 70 28 4 28 -44 0 -51
3 -51 20 0 17 7 20 50 20 38 0 50 4 50 15 0 21 -158 22 -166 2z"/>
<path d="M2570 655 l0 -85 30 0 c28 0 29 1 32 55 l3 55 82 -55 c47 -31 94 -55
108 -55 l26 0 -3 83 -3 82 -30 0 c-29 0 -30 -2 -33 -52 l-3 -53 -82 55 c-45
30 -92 55 -104 55 -22 0 -23 -3 -23 -85z"/>
</g>
</svg>
