<?xml version="1.0" standalone="no"?>
<!DOCTYPE svg PUBLIC "-//W3C//DTD SVG 20010904//EN"
 "http://www.w3.org/TR/2001/REC-SVG-20010904/DTD/svg10.dtd">
<svg version="1.0" xmlns="http://www.w3.org/2000/svg"
 width="400.000000pt" height="400.000000pt" viewBox="0 0 400.000000 400.000000"
 preserveAspectRatio="xMidYMid meet">

<g transform="translate(0.000000,400.000000) scale(0.100000,-0.100000)"
fill="#000000" stroke="none">
<path d="M0 2000 l0 -2000 2000 0 2000 0 0 2000 0 2000 -2000 0 -2000 0 0
-2000z m1164 831 c9 -14 -102 -108 -159 -136 -55 -28 -125 -37 -132 -18 -6 17
121 136 160 150 39 14 124 17 131 4z m-218 -232 c4 -6 -30 -49 -78 -98 -234
-239 -448 -528 -448 -604 0 -57 67 -60 177 -7 115 54 205 125 295 231 48 57
75 74 133 83 63 10 75 -5 39 -49 -68 -87 -68 -86 -5 -44 150 100 318 128 337
55 8 -33 -15 -74 -107 -189 -44 -54 -79 -103 -79 -109 0 -17 75 -3 133 26 29
14 72 42 95 61 46 40 62 39 62 -5 0 -77 -195 -190 -333 -192 -47 -1 -62 3 -82
22 -47 44 -30 95 76 221 38 46 69 88 69 92 0 9 -25 3 -77 -19 -87 -35 -291
-188 -351 -263 -24 -30 -42 -42 -77 -49 -49 -10 -85 -6 -85 10 0 5 11 24 25
41 l24 33 -67 -33 c-121 -58 -223 -76 -285 -49 -68 29 -88 83 -62 173 32 111
115 235 286 428 147 166 200 214 250 230 54 17 125 19 135 4z m1712 -154 c-4
-15 -94 -93 -164 -141 -51 -36 -117 -53 -150 -40 -15 6 -4 20 57 82 83 85 112
103 178 113 54 8 83 3 79 -14z m-683 -249 c29 -12 35 -20 35 -45 0 -23 -20
-50 -96 -133 -52 -56 -103 -113 -111 -126 -40 -59 47 -49 177 19 59 31 82 50
108 89 19 27 61 79 94 114 48 53 69 69 111 81 59 17 93 19 102 5 4 -6 -26 -45
-65 -88 -79 -84 -170 -207 -170 -229 0 -21 56 -16 108 11 46 23 121 78 277
201 145 114 345 149 428 75 50 -44 44 -92 -22 -200 -28 -46 -50 -91 -48 -100
5 -24 69 -15 327 50 295 74 387 90 509 90 122 -1 186 -21 218 -69 26 -38 30
-81 9 -81 -7 0 -31 8 -52 17 -31 14 -67 17 -179 17 -155 -1 -209 -9 -557 -85
-127 -27 -253 -49 -285 -49 -72 0 -121 26 -129 70 l-6 29 -32 -23 c-62 -47
-119 -69 -192 -74 -86 -5 -127 12 -145 61 l-12 33 -89 -45 c-77 -39 -99 -46
-163 -49 -64 -4 -76 -1 -94 17 -12 12 -21 29 -21 39 0 16 -8 14 -70 -16 -55
-28 -85 -36 -145 -40 -74 -5 -74 -5 -110 31 -19 19 -35 43 -35 53 0 39 46 109
121 184 l79 80 -58 0 c-86 0 -123 -15 -191 -77 -49 -44 -65 -53 -72 -42 -19
30 -7 54 59 121 55 57 78 73 118 83 68 19 226 19 269 1z"/>
<path d="M2793 2115 c-90 -28 -212 -130 -250 -210 -21 -45 -9 -60 41 -51 81
15 276 194 276 253 0 26 -8 27 -67 8z"/>
</g>
</svg>
