<svg id="svg" version="1.1" xmlns="http://www.w3.org/2000/svg" xmlns:xlink="http://www.w3.org/1999/xlink" width="400" height="400" viewBox="0, 0, 400,400"><g id="svgg"><path id="path0" d="M176.300 174.498 L 192.398 190.597 196.096 186.898 L 199.795 183.200 187.400 170.800 L 175.005 158.400 167.603 158.400 L 160.201 158.400 176.300 174.498 M181.000 216.800 L 140.201 257.600 147.602 257.600 L 155.002 257.600 192.196 220.404 L 229.391 183.208 225.804 179.604 C 223.831 177.622,222.123 176.000,222.008 176.000 C 221.893 176.000,203.439 194.360,181.000 216.800 M275.713 208.021 C 267.588 211.235,265.361 222.866,271.663 229.169 C 277.707 235.213,288.157 233.563,291.954 225.967 C 297.358 215.151,286.900 203.594,275.713 208.021 M71.599 216.900 C 71.599 224.955,71.505 226.387,70.899 227.594 C 69.088 231.205,63.772 230.552,62.712 226.588 C 62.231 224.790,58.795 223.658,58.802 225.300 C 58.828 231.008,65.375 234.631,71.000 232.048 C 74.790 230.307,75.160 228.983,75.182 217.100 L 75.200 207.600 73.400 207.600 L 71.600 207.600 71.599 216.900 M110.800 209.000 L 110.800 210.400 119.000 210.400 L 127.200 210.400 127.200 209.000 L 127.200 207.600 119.000 207.600 L 110.800 207.600 110.800 209.000 M217.600 208.986 L 217.600 210.371 221.500 210.486 L 225.400 210.600 225.506 221.500 L 225.613 232.400 227.406 232.400 L 229.200 232.400 229.200 221.400 L 229.200 210.400 233.000 210.400 L 236.800 210.400 236.800 209.000 L 236.800 207.600 227.200 207.600 L 217.600 207.600 217.600 208.986 M328.000 220.000 L 328.000 232.400 329.800 232.400 L 331.600 232.400 331.600 229.200 L 331.600 226.000 334.927 226.000 C 342.393 226.000,346.400 222.717,346.400 216.600 C 346.400 210.006,343.090 207.600,334.016 207.600 L 328.000 207.600 328.000 220.000 M283.257 210.464 C 291.082 212.809,292.070 225.067,284.737 228.828 C 275.322 233.657,266.871 220.386,274.557 212.842 C 277.189 210.259,280.004 209.490,283.257 210.464 M340.424 211.481 C 345.734 215.950,342.675 222.800,335.369 222.800 L 331.600 222.800 331.600 216.600 L 331.600 210.400 335.369 210.400 C 338.882 210.400,339.226 210.474,340.424 211.481 M110.800 225.200 L 110.800 232.400 119.400 232.400 L 128.000 232.400 128.000 231.009 L 128.000 229.619 121.100 229.509 L 114.200 229.400 114.200 225.200 L 114.200 221.000 119.500 220.888 L 124.800 220.777 124.800 219.388 L 124.800 218.000 117.800 218.000 L 110.800 218.000 110.800 225.200 " stroke="none" fill="#0f726d" fill-rule="evenodd"></path><path id="path1" d="M0.000 200.000 L 0.000 400.000 200.000 400.000 L 400.000 400.000 400.000 200.000 L 400.000 0.000 200.000 0.000 L 0.000 0.000 0.000 200.000 M204.754 158.461 L 229.707 183.291 192.354 220.646 L 155.002 258.000 147.402 258.000 L 139.802 258.000 177.201 220.581 L 214.600 183.161 189.600 158.400 L 164.600 133.638 172.200 133.635 L 179.800 133.631 204.754 158.461 M187.544 170.786 L 200.087 183.129 175.144 207.949 L 150.200 232.769 142.801 232.785 L 135.402 232.800 160.101 208.099 L 184.800 183.398 172.301 170.899 L 159.802 158.400 167.401 158.421 L 175.000 158.442 187.544 170.786 M286.752 208.407 C 298.778 214.817,294.259 233.000,280.640 233.000 C 265.690 233.000,262.721 212.065,277.000 207.336 C 279.789 206.412,283.846 206.858,286.752 208.407 M75.530 217.300 C 75.407 226.845,75.351 227.492,74.509 229.066 C 70.821 235.964,59.393 233.745,58.721 226.000 L 58.600 224.600 60.645 224.481 L 62.690 224.362 62.920 226.080 C 63.389 229.575,67.521 230.941,70.031 228.431 L 71.200 227.262 71.200 217.231 L 71.200 207.200 73.430 207.200 L 75.661 207.200 75.530 217.300 M127.523 208.900 L 127.400 210.600 118.900 210.708 L 110.400 210.816 110.400 209.008 L 110.400 207.200 119.023 207.200 L 127.646 207.200 127.523 208.900 M237.123 208.900 L 237.000 210.600 233.100 210.714 L 229.200 210.829 229.200 221.814 L 229.200 232.800 227.200 232.800 L 225.200 232.800 225.200 221.814 L 225.200 210.829 221.300 210.714 L 217.400 210.600 217.277 208.900 L 217.154 207.200 227.200 207.200 L 237.246 207.200 237.123 208.900 M340.913 207.739 C 348.472 210.907,348.601 222.251,341.113 225.379 C 340.104 225.800,338.336 226.000,335.613 226.000 L 331.600 226.000 331.600 229.400 L 331.600 232.800 329.600 232.800 L 327.600 232.800 327.600 220.000 L 327.600 207.200 333.613 207.200 C 337.754 207.200,340.026 207.368,340.913 207.739 M276.881 211.251 C 268.905 215.200,271.038 228.790,279.748 229.512 C 285.419 229.983,289.381 226.070,289.381 220.000 C 289.381 212.775,282.928 208.258,276.881 211.251 M331.600 216.848 L 331.600 222.895 335.300 222.725 C 340.655 222.479,342.603 220.812,342.541 216.528 C 342.480 212.268,340.709 210.831,335.500 210.813 L 331.600 210.800 331.600 216.848 M125.123 219.500 L 125.246 221.200 119.823 221.200 L 114.400 221.200 114.400 225.191 L 114.400 229.181 121.300 229.291 L 128.200 229.400 128.323 231.100 L 128.446 232.800 119.423 232.800 L 110.400 232.800 110.400 225.191 L 110.400 217.582 117.700 217.691 L 125.000 217.800 125.123 219.500 " stroke="none" fill="#fbfbfb" fill-rule="evenodd"></path><path id="path2" d="M189.600 158.396 L 214.600 183.155 218.303 179.483 L 222.005 175.811 225.701 179.506 L 229.396 183.202 191.999 220.701 L 154.601 258.200 192.154 220.746 L 229.708 183.292 204.754 158.461 L 179.800 133.631 172.200 133.635 L 164.600 133.638 189.600 158.396 M172.300 170.800 L 184.800 183.398 160.101 208.099 L 135.402 232.800 142.801 232.785 L 150.200 232.769 175.153 207.940 L 200.105 183.111 196.356 179.455 L 192.606 175.800 196.197 179.503 L 199.789 183.206 196.094 186.901 L 192.399 190.595 176.100 174.398 C 165.502 163.867,164.172 162.608,172.300 170.800 M75.373 216.600 C 75.373 221.880,75.430 223.985,75.499 221.277 C 75.568 218.569,75.568 214.249,75.499 211.677 C 75.429 209.105,75.372 211.320,75.373 216.600 M217.361 208.897 L 217.400 210.600 221.400 210.624 L 225.400 210.648 221.522 210.510 L 217.645 210.372 217.483 208.783 L 217.322 207.194 217.361 208.897 M114.500 210.698 C 116.865 210.769,120.735 210.769,123.100 210.698 C 125.465 210.628,123.530 210.570,118.800 210.570 C 114.070 210.570,112.135 210.628,114.500 210.698 M231.113 210.695 C 232.276 210.776,234.076 210.776,235.113 210.693 C 236.151 210.611,235.200 210.545,233.000 210.546 C 230.800 210.547,229.951 210.614,231.113 210.695 M333.312 210.695 C 334.364 210.777,335.984 210.776,336.912 210.692 C 337.840 210.608,336.980 210.541,335.000 210.542 C 333.020 210.543,332.260 210.612,333.312 210.695 M113.900 217.898 C 115.935 217.971,119.265 217.971,121.300 217.898 C 123.335 217.825,121.670 217.766,117.600 217.766 C 113.530 217.766,111.865 217.825,113.900 217.898 M121.077 229.494 L 127.955 229.619 128.117 231.212 L 128.278 232.806 128.239 231.103 L 128.200 229.400 121.200 229.385 L 114.200 229.370 121.077 229.494 " stroke="none" fill="#9dd3cc" fill-rule="evenodd"></path><path id="path3" d="M71.373 216.600 C 71.373 221.880,71.430 223.985,71.499 221.277 C 71.568 218.569,71.568 214.249,71.499 211.677 C 71.429 209.105,71.372 211.320,71.373 216.600 M127.309 208.800 C 127.309 209.790,127.387 210.195,127.482 209.700 C 127.578 209.205,127.578 208.395,127.482 207.900 C 127.387 207.405,127.309 207.810,127.309 208.800 M236.909 208.800 C 236.909 209.790,236.987 210.195,237.082 209.700 C 237.178 209.205,237.178 208.395,237.082 207.900 C 236.987 207.405,236.909 207.810,236.909 208.800 M327.779 220.000 C 327.779 227.150,327.833 230.075,327.899 226.500 C 327.966 222.925,327.966 217.075,327.899 213.500 C 327.833 209.925,327.779 212.850,327.779 220.000 M280.100 210.276 C 280.485 210.376,281.115 210.376,281.500 210.276 C 281.885 210.175,281.570 210.093,280.800 210.093 C 280.030 210.093,279.715 210.175,280.100 210.276 M346.501 216.600 C 346.505 217.480,346.587 217.793,346.683 217.295 C 346.779 216.798,346.775 216.078,346.675 215.695 C 346.575 215.313,346.496 215.720,346.501 216.600 M124.909 219.600 C 124.909 220.590,124.987 220.995,125.082 220.500 C 125.178 220.005,125.178 219.195,125.082 218.700 C 124.987 218.205,124.909 218.610,124.909 219.600 M267.709 220.000 C 267.709 220.990,267.787 221.395,267.882 220.900 C 267.978 220.405,267.978 219.595,267.882 219.100 C 267.787 218.605,267.709 219.010,267.709 220.000 M60.393 224.685 C 61.380 224.778,62.339 225.068,62.524 225.328 C 62.757 225.654,62.811 225.615,62.699 225.200 C 62.585 224.778,61.954 224.587,60.569 224.557 L 58.600 224.514 60.393 224.685 M66.305 233.083 C 66.802 233.179,67.522 233.175,67.905 233.075 C 68.287 232.975,67.880 232.896,67.000 232.901 C 66.120 232.905,65.807 232.987,66.305 233.083 M279.905 233.083 C 280.402 233.179,281.122 233.175,281.505 233.075 C 281.887 232.975,281.480 232.896,280.600 232.901 C 279.720 232.905,279.407 232.987,279.905 233.083 M143.900 257.898 C 145.935 257.971,149.265 257.971,151.300 257.898 C 153.335 257.825,151.670 257.766,147.600 257.766 C 143.530 257.766,141.865 257.825,143.900 257.898 " stroke="none" fill="#949494" fill-rule="evenodd"></path><path id="path4" d="M72.505 207.487 C 73.114 207.579,74.014 207.577,74.505 207.482 C 74.997 207.387,74.500 207.311,73.400 207.314 C 72.300 207.317,71.897 207.395,72.505 207.487 M110.467 208.900 L 110.534 210.600 110.691 209.108 L 110.847 207.616 119.124 207.499 L 127.400 207.383 118.900 207.291 L 110.400 207.200 110.467 208.900 M222.300 207.499 C 224.995 207.568,229.405 207.568,232.100 207.499 C 234.795 207.430,232.590 207.373,227.200 207.373 C 221.810 207.373,219.605 207.430,222.300 207.499 M330.700 207.497 C 332.295 207.573,334.905 207.573,336.500 207.497 C 338.095 207.421,336.790 207.359,333.600 207.359 C 330.410 207.359,329.105 207.421,330.700 207.497 M225.293 221.700 L 225.200 232.800 227.300 232.728 L 229.400 232.656 227.506 232.506 L 225.613 232.357 225.500 221.478 L 225.387 210.600 225.293 221.700 M110.490 225.300 L 110.400 232.800 119.300 232.708 L 128.200 232.616 119.509 232.500 L 110.818 232.384 110.699 225.092 L 110.581 217.800 110.490 225.300 M114.172 221.330 C 114.060 221.622,114.028 223.557,114.101 225.630 L 114.234 229.400 114.317 225.312 L 114.400 221.223 119.700 221.099 L 125.000 220.975 119.687 220.887 C 115.583 220.820,114.329 220.921,114.172 221.330 M328.905 232.687 C 329.514 232.779,330.414 232.777,330.905 232.682 C 331.397 232.587,330.900 232.511,329.800 232.514 C 328.700 232.517,328.297 232.595,328.905 232.687 " stroke="none" fill="#848484" fill-rule="evenodd"></path></g></svg>