<?xml version="1.0" standalone="no"?>
<!DOCTYPE svg PUBLIC "-//W3C//DTD SVG 20010904//EN"
 "http://www.w3.org/TR/2001/REC-SVG-20010904/DTD/svg10.dtd">
<svg version="1.0" xmlns="http://www.w3.org/2000/svg"
 width="1000.000000pt" height="1000.000000pt" viewBox="0 0 1000.000000 1000.000000"
 preserveAspectRatio="xMidYMid meet">

<g transform="translate(0.000000,1000.000000) scale(0.100000,-0.100000)"
fill="#000000" stroke="none">
<path d="M4407 5638 l403 -403 90 90 90 90 -312 312 -313 313 -180 0 -180 0
402 -402z"/>
<path d="M4535 4580 l-1020 -1020 180 0 180 0 930 930 930 930 -90 90 -90 90
-1020 -1020z"/>
<path d="M6959 4820 c-94 -16 -177 -75 -225 -162 -27 -49 -29 -60 -29 -158 0
-120 15 -160 85 -230 62 -62 112 -83 211 -88 78 -4 92 -2 148 23 70 32 132 94
164 163 16 36 21 67 22 132 0 73 -4 93 -28 142 -64 130 -204 202 -348 178z
m171 -108 c150 -93 149 -332 -3 -426 -109 -67 -247 -22 -313 104 -27 52 -26
172 3 225 67 125 201 166 313 97z"/>
<path d="M1788 4572 c-3 -216 -5 -251 -20 -275 -25 -37 -81 -52 -133 -35 -35
11 -42 19 -60 65 -20 53 -20 53 -64 53 l-44 0 7 -41 c16 -98 74 -151 172 -157
85 -6 127 3 165 35 63 54 69 80 69 356 l0 247 -44 0 -45 0 -3 -248z"/>
<path d="M2767 4813 c-4 -3 -7 -21 -7 -40 l0 -33 210 0 210 0 0 40 0 40 -203
0 c-112 0 -207 -3 -210 -7z"/>
<path d="M5440 4780 l0 -40 95 0 95 0 2 -277 3 -278 48 -3 47 -3 0 280 0 281
95 0 95 0 0 40 0 40 -240 0 -240 0 0 -40z"/>
<path d="M8200 4500 l0 -320 45 0 45 0 0 84 0 84 108 3 c95 4 112 7 155 32 33
19 56 44 77 80 59 104 32 249 -60 312 -55 38 -92 45 -237 45 l-133 0 0 -320z
m301 217 c85 -56 92 -185 15 -257 -25 -23 -37 -25 -127 -28 l-99 -4 0 156 0
156 89 0 c75 0 93 -3 122 -23z"/>
<path d="M2762 4368 l3 -183 218 -3 217 -2 0 40 0 40 -170 0 -170 0 0 105 0
105 130 0 130 0 0 40 0 40 -180 0 -180 0 2 -182z"/>
</g>
</svg>
